# xmcd
#
# Track frame offsets: 
#        150
#        782
#        22315
#        46775
#        75010
#        92692
#        114460
#        134167
#        136530
#        156172
#        186107
#        207077
#
# Disc length: 2812 seconds
#
# Revision: 0
# Processed by: cddbd v1.4PL0 Copyright (c) Steve Scherf et al.
# Submitted via: ExactAudioCopy v0.90a11
#
DISCID=880afa0c
DTITLE=The Gap Band - Ain't Nothin' But A Party
DYEAR=1900
DGENRE=
TTITLE0=Where's My Glasses?
TTITLE1=First Lover
TTITLE2=Closin' The G.A.P.
TTITLE3=Got It Goin' On
TTITLE4=You Dropped A Bomb On Me (The Remix)
TTITLE5=Love At Your Fingertips
TTITLE6=Shake Dat Booty
TTITLE7=Here We Go
TTITLE8=Over The Funkin' Hill (Featuring George Clinton)
TTITLE9=Closin' The G.A.P. (Extended Club Edit)
TTITLE10=Why You Wanna Funk Around
TTITLE11=Got It Goin' On Part II
EXTD=
EXTT0=
EXTT1=
EXTT2=
EXTT3=
EXTT4=
EXTT5=
EXTT6=
EXTT7=
EXTT8=
EXTT9=
EXTT10=
EXTT11=
PLAYORDER=
